<?xml version="1.0" encoding="UTF-8"?>
<svg xmlns="http://www.w3.org/2000/svg" version="1.1" viewBox="0 0 1068.6 219.4">
  <defs>
    <style>
      .cls-1 {
        fill: #ac3229;
      }

      .cls-2 {
        display: none;
      }

      .cls-3, .cls-4 {
        fill: #1d1d1b;
      }

      .cls-4 {
        isolation: isolate;
        opacity: .2;
      }
    </style>
  </defs>
  <!-- Generator: Adobe Illustrator 28.7.0, SVG Export Plug-In . SVG Version: 1.2.0 Build 136)  -->
  <g>
    <g id="Ebene_1">
      <g id="Rand" class="cls-2">
        <g>
          <path class="cls-4" d="M119.8-104.4c0-2.1-.9-3.6-2-4.5-1.5-1.3-3.3-2-5.4-2h-40.3c-11.4-.4-16.1,6.5-18.6,11.1C50.9-94.9,5.4-6,4,1.1c-.5,2.1,1.1,3.9,4.7,3.9,2.1,0,17.4,0,17.4,0,3.1-.3,3.4-1.7,4.6-4.5,0,0,5.2-11.2,12-25.1h49.7V-1.4c.2,3.7,2,6.2,7.4,6.3h12.6c6.1-.2,7.3-2.7,7.5-6.3v-103.1h0ZM92.3-46.7h-38.4c8.4-17.1,16-32.6,16.8-34,.9-1.6,3.3-5.5,6.7-5.9,2.7-.3,14.9-.1,14.9-.1v40Z"/>
          <path class="cls-4" d="M3.9,11.6c0-2.1-.9-3.6-2-4.5-1.5-1.3-3.3-2-5.4-2h-40.3c-11.4-.4-16.1,6.5-18.6,11.1-2.8,5-48.3,93.9-49.6,101-.5,2.1,1.1,3.9,4.7,3.9,2.1,0,17.4,0,17.4,0,3.1-.3,3.4-1.7,4.6-4.5,0,0,5.2-11.2,12-25.1H-23.6v23.2c.2,3.7,2,6.2,7.4,6.3H-3.6c6.1-.2,7.3-2.7,7.5-6.3V11.6ZM-23.6,69.3h-38.4c8.4-17.1,16-32.6,16.8-34,.9-1.6,3.3-5.5,6.7-5.9,2.7-.3,14.9-.1,14.9-.1v40Z"/>
          <path class="cls-4" d="M1180.6,11.6c0-2.1-.9-3.6-2-4.5-1.5-1.3-3.3-2-5.4-2h-40.3c-11.4-.4-16.1,6.5-18.6,11.1-2.8,5-48.3,93.9-49.6,101-.5,2.1,1.1,3.9,4.7,3.9,2.1,0,17.4,0,17.4,0,3.1-.3,3.4-1.7,4.6-4.5,0,0,5.2-11.2,12-25.1h49.7v23.2c.2,3.7,2,6.2,7.4,6.3h12.6c6.1-.2,7.3-2.7,7.5-6.3V11.6s0,0,0,0ZM1153.1,69.3h-38.4c8.4-17.1,16-32.6,16.8-34,.9-1.6,3.3-5.5,6.7-5.9,2.7-.3,14.9-.1,14.9-.1v40h0Z"/>
          <path class="cls-4" d="M119.8,212c0-2.1-.9-3.6-2-4.5-1.5-1.3-3.3-2-5.4-2h-40.3c-11.4-.4-16.1,6.5-18.6,11.1-2.8,5-48.3,93.9-49.6,101-.5,2.1,1.1,3.9,4.7,3.9,2.1,0,17.4,0,17.4,0,3.1-.3,3.4-1.7,4.6-4.5,0,0,5.2-11.2,12-25.1h49.7v23.2c.2,3.7,2,6.2,7.4,6.3h12.6c6.1-.2,7.3-2.7,7.5-6.3v-103.1h0ZM92.3,269.7h-38.4c8.4-17.1,16-32.6,16.8-34,.9-1.6,3.3-5.5,6.7-5.9,2.7-.3,14.9-.1,14.9-.1v40Z"/>
        </g>
      </g>
      <g id="Ebene_11">
        <g>
          <path class="cls-3" d="M635.4,179.4c6.7,0,8.1,4.2,8.1,10.8s-1.5,11.6-8.5,11.6-8.1-3.9-8.1-11,3.2-11.3,8.5-11.3M643.3,162.5v16.4c-.8-1.7-3.1-3.8-8.4-3.8-8.2,0-13.3,6.7-13.3,15.9s4.7,15.2,12.3,15.2,7.9-1.8,9.3-4.9c0,1.2.1,3.4.3,4.2h4.9c0-2.9,0-5.6,0-8.4v-34.6h-5.1ZM615,162.5h-5.1v43h5.1v-43ZM589.3,205.4h5.1v-14.4c0-7.5,3.9-10.7,10-10.9v-5.1c-4.9.2-8.4,2.7-10,6.8,0-2.9,0-5.2-.2-6.1h-5c0,1.6,0,3.9,0,8.1v21.6ZM568.7,179.3c5.6,0,8.6,4.6,8.6,11.3s-3.1,11.2-8.5,11.2-8.6-4.7-8.6-11.3,2.9-11.3,8.5-11.3M569,175c-8.9,0-14,6.8-14,15.6s5.1,15.5,13.7,15.5,14-7.1,14-15.6-5.4-15.5-13.6-15.5M509.9,175.7l8.6,29.7h5.7c3.3-11.8,6-20.8,6.5-24.1h0c.6,3.2,3.5,13.2,6.4,24.1h5.5l9.1-29.7h-5.2c-4.6,16.7-5.8,21.2-6.6,24.4h0c-.5-2.7-1.9-7.6-6.5-24.4h-5c-4.2,14.8-6.3,22.2-6.8,24.9h0c-.5-3.1-2.6-11-6.3-24.9h-5.4,0ZM489.2,162.5h-5.1v43h5.1v-43ZM470.2,191.9c0,5.4-1,10.2-8.1,10.2s-5.8-2.2-5.8-5.3,3.2-5.8,9.1-5.8h4.8v1h0ZM475.3,184.8c0-6.8-4-9.7-11.3-9.7-8.5,0-11.1,4.7-11.5,8.8h5c.5-2.3,1.4-4.8,6.3-4.8s6.4,3.2,6.4,5.8v2.5h-5.1c-8.8,0-14,3-14,9.7s3,9.1,10,9.1,8.1-2.6,9.2-4.6c0,1.8.3,3.2.5,3.9h4.9c-.2-.9-.4-3.8-.4-6.5v-14.2ZM430.8,179.9h5.1v18.6c0,4.9,2,7.3,6.7,7.3s3.2,0,4.4-.5v-3.9c-.8.2-1.9.2-2.6.2-2.7,0-3.4-1.5-3.4-4.4v-17.4h6.6v-4.2h-6.6v-8.8h-5.1v8.8h-5.1v4.2h0ZM420.4,168.9h5.1v-6.4h-5.1v6.4ZM420.4,205.4h5.1v-29.7h-5.1v29.7ZM398.7,179.4c6.3,0,8.1,4,8.1,10.6s-1.9,10.9-8.3,10.9-8.1-4.2-8.1-10.5,2.8-11,8.3-11M411.7,184.3c0-2.9,0-6.9,0-8.6h-4.8c0,.6-.2,2.6-.2,3.9-.7-2-3.1-4.6-8.7-4.6s-12.8,5.9-12.8,15.6,5,14.7,12.3,14.7,7.7-1.9,9.3-5.2v2.4c0,6.8-1.7,11.1-8.4,11.1s-6.4-1.7-7.3-5h-5.2c.5,4,3.3,9.1,12.3,9.1s13.6-5.4,13.6-14.9v-18.4h0ZM373.3,168.9h5.1v-6.4h-5.1v6.4ZM373.3,205.4h5.1v-29.7h-5.1v29.7ZM351.6,179.4c6.7,0,8.1,4.2,8.1,10.8s-1.5,11.6-8.5,11.6-8.1-3.9-8.1-11,3.2-11.3,8.5-11.3M359.5,162.5v16.4c-.8-1.7-3.1-3.8-8.4-3.8-8.2,0-13.3,6.7-13.3,15.9s4.7,15.2,12.3,15.2,7.9-1.8,9.3-4.9c0,1.2.1,3.4.3,4.2h4.9c0-2.9,0-5.6,0-8.4v-34.6h-5.1Z"/>
          <path class="cls-3" d="M297.7,187.9h0c.5-5.2,2.8-8.8,8-8.8s7.5,3.9,7.6,8.8h-15.6,0ZM318.4,191.5c0-.8,0-1.6,0-2.5,0-6.3-3.1-14-12.7-14s-13.5,7-13.5,15.9,3.8,15.2,13.1,15.2,11.3-5.1,12.5-8.9h-5.2c-1,2.2-2.5,4.6-7.2,4.6s-8.1-4.3-8.1-10.3h20.9ZM261.3,162.5v43h5.1v-16.2c0-6.2,2.4-9.7,7.7-9.7s6.5,2.8,6.5,7.9v18.1h5.1v-18.9c0-8.8-5.2-11.4-10-11.4s-7.8,2.5-9.3,5.1v-17.7h-5.1,0ZM239.1,179.9h5.1v18.6c0,4.9,2,7.3,6.7,7.3s3.2,0,4.4-.5v-3.9c-.8.2-1.9.2-2.6.2-2.7,0-3.4-1.5-3.4-4.4v-17.4h6.6v-4.2h-6.6v-8.8h-5.1v8.8h-5.1v4.2h0ZM206.4,179.4c6.3,0,8.1,4,8.1,10.6s-1.9,10.9-8.3,10.9-8.1-4.2-8.1-10.5,2.8-11,8.3-11M219.3,184.3c0-2.9,0-6.9,0-8.6h-4.8c0,.6-.2,2.6-.2,3.9-.7-2-3.1-4.6-8.7-4.6s-12.8,5.9-12.8,15.6,5,14.7,12.3,14.7,7.7-1.9,9.3-5.2v2.4c0,6.8-1.7,11.1-8.4,11.1s-6.4-1.7-7.3-5h-5.2c.5,4,3.3,9.1,12.3,9.1s13.6-5.4,13.6-14.9v-18.4h0ZM161.7,205.4h5.1v-15.7c0-6,2.3-10.2,7.9-10.2s6.3,3,6.3,7.5v18.4h5.1v-19.1c0-7.9-4.4-11.3-9.9-11.3s-8.2,3-9.3,5.6c0-.9,0-4-.2-4.9h-5c0,2.3,0,4.9,0,7.5v22.2h0ZM147.8,168.9h5.1v-6.4h-5.1v6.4ZM147.8,205.4h5.1v-29.7h-5.1v29.7ZM139.1,162.5h-5.1v43h5.1v-43ZM113.7,201.8c-6.3,0-8.3-4.9-8.3-11.1s2.2-11.3,8.5-11.3,8.1,4.3,8.1,10.7-3.1,11.7-8.3,11.7M100.5,195.5c0,3.3,0,6.7,0,10h4.9c.1-.8.2-2.4.2-3.9,1.5,2.9,4,4.6,8.7,4.6,8.4,0,12.9-7.1,12.9-16.1s-4.7-14.9-12.1-14.9-8.1,2.4-9.5,4.9v-17.5h-5.1v33h0ZM86.7,191.9c0,5.4-1,10.2-8.1,10.2s-5.8-2.2-5.8-5.3,3.2-5.8,9.1-5.8h4.8v.9ZM91.7,184.8c0-6.8-4-9.7-11.3-9.7-8.5,0-11.1,4.7-11.5,8.8h5c.5-2.3,1.4-4.8,6.3-4.8s6.4,3.2,6.4,5.8v2.5h-5.1c-8.8,0-14,3-14,9.7s3,9.1,10,9.1,8.1-2.6,9.2-4.6c0,1.8.3,3.2.5,3.9h4.9c-.2-.9-.4-3.8-.4-6.5v-14.2h0ZM36.8,205.4h5.1v-15.7c0-6,2.3-10.2,7.9-10.2s6.3,3,6.3,7.5v18.4h5.1v-19.1c0-7.9-4.4-11.3-9.9-11.3s-8.2,3-9.3,5.6c0-.9,0-4-.2-4.9h-5c0,2.3,0,4.9,0,7.5v22.2ZM9.4,187.9h0c.5-5.2,2.8-8.8,8-8.8s7.5,3.9,7.6,8.8h-15.6ZM30.1,191.5c0-.8,0-1.6,0-2.5,0-6.3-3.1-14-12.7-14s-13.5,7-13.5,15.9,3.8,15.2,13.1,15.2,11.3-5.1,12.5-8.9h-5.2c-1,2.2-2.5,4.6-7.2,4.6s-8.1-4.3-8.1-10.3h20.9Z"/>
        </g>
        <g>
          <g>
            <path class="cls-1" d="M490.8,5h-45.3c-3.7,0-6.8,2.8-6.8,6.5v103.1c0,3.7,3,6.4,6.8,6.4h13.9c3.7,0,6.8-2.6,6.8-6.4v-23.1h24.6c31.8,0,47-17.3,47-42.3,0-43.9-39.3-44.2-47-44.2M514,49.6c-.4,18,.1,19.6-26.6,19.6h-21.1V29.2c2.4,0,14.7,0,21.1,0,23.4,0,27.1,5.3,26.7,20.4"/>
            <path class="cls-1" d="M194.6,121s-50.7,0-51,0c-2.7-.1-6.4-1.8-6.1-7.2v-11.2c0-3.6,2.6-5.7,6.1-5.7s39.2,0,47.5,0c14.5,0,22.6.4,25.2-1.9,2-1.8,1.6-5.6,1.5-11.1,0-6.6-4-7.9-11-7.6l-21.6.3c-42,.4-48.5-5.4-47.6-39.5.7-28.8,16.4-31.8,48.6-31.8h48.2c3.5,0,6.3,3.1,6.3,6.4v12.5c0,3.2-2.6,5.3-6,5.4,0,0-65.9-.4-68.8.1-4.7.8-3.9,5.8-3.8,11.6.1,6.6.4,7.4,2.3,8.9,4.5,3.5,42.7,1.4,54.2,1.7,17.8.5,20.8,9.9,22.6,16.1,1.8,6.1,6.2,38.2-5,46.6-9.1,6.8-41.5,6.7-41.5,6.7"/>
            <path class="cls-1" d="M648.5,22.9v-11.5c0-3.6-2.9-6.4-6.4-6.4h-92.9c-3.6,0-6.5,2.9-6.5,6.4v11.5c0,3.6,2.9,6.3,6.5,6.3h23.3v85.4c0,3.6,2.9,6.3,6.5,6.3h14.6c3.6,0,6.5-2.7,6.5-6.3V29.2h42.1c3.6,0,6.4-2.8,6.4-6.3"/>
            <path class="cls-1" d="M419.1,114.7V45.5c0-22.4-17.4-40.5-39.9-40.5h-31.6c-7-.2-11.5,2.3-14.5,5.4-5.9-3.4-12.8-5.4-20.1-5.4h-46.7c-3.4.2-6,3.1-6,6.5v103.2c0,3.6,2.9,6.3,6.5,6.3h14.6c3.6,0,6.4-2.7,6.4-6.3V29.3h26.5c9,0,15.5,7.4,15.5,16.4v69.1c0,3.6,2.9,6.3,6.4,6.3h11c3.6,0,6.5-2.7,6.5-6.3V45.7c0-5.4-1-11.7-2.9-16.4,3.1,0,29.6,0,29.6,0,9,0,14.7,7.4,14.7,16.4v69.1c0,3.6,2.9,6.3,6.5,6.3h11c3.6,0,6.5-2.7,6.5-6.3"/>
          </g>
          <path class="cls-1" d="M120,11.6c0-2.1-.9-3.6-2-4.5-1.5-1.3-3.3-2-5.4-2h-40.3c-11.4-.4-16.1,6.5-18.6,11.1-2.8,5-48.3,93.9-49.7,101-.5,2.1,1.1,3.9,4.7,3.9,2.1,0,17.4,0,17.4,0,3.1-.3,3.4-1.7,4.6-4.5,0,0,5.2-11.2,12-25.1h49.7v23.2c.2,3.7,2,6.2,7.4,6.3h12.6c6.1-.2,7.3-2.7,7.5-6.3V11.6s0,0,0,0ZM92.5,69.3h-38.5c8.4-17.1,16-32.6,16.8-34,.9-1.6,3.3-5.5,6.8-5.9,2.7-.3,14.9-.1,14.9-.1v40Z"/>
        </g>
      </g>
      <g id="_x35_0">
        <path class="cls-3" d="M893.4,122.8c0-13.3,2.9-25.9,8.1-37.1-4.1-10-10.5-18.9-18.7-25.8-7.4-6.1-15.6-10.4-24.9-12.6-1-.2-1.5-1.3-1-2.2l7.1-14.3c.3-.5.8-.8,1.3-.8h39.9c.6,0,1.1-.3,1.3-.9l11-22c.5-1-.2-2.2-1.3-2.2h-66.4c-.6,0-1.1.3-1.3.8l-34.4,69.2c-.6,1.1.4,2.4,1.6,2.2l17.7-4.1c12.5-2.3,23.7.3,32.2,7.4,9,7.5,14.3,19.4,14.3,31.8,0,22.7-19.2,41.2-42.8,41.2s-7.1-.4-10.5-1.2c-.7-.2-1.4.2-1.7.8l-10.8,21.6c-.4.8,0,1.8.9,2.1,7.1,2.3,14.5,3.5,22.1,3.5,25.3,0,47.4-13.2,59.7-32.9-2.2-7.8-3.4-16-3.4-24.5h0Z"/>
        <path class="cls-3" d="M1030.6,100.3l-9.9,19.9h-30.9c-1.1,3-4,5.2-7.4,5.2s-7.9-3.6-7.9-7.9,3.6-7.9,7.9-7.9,6.3,2.2,7.4,5.2h27.1l10.1-20.2h32.6c-3.4-9.2-8.4-17.7-14.6-25.1h-93.2l-3.5,7c1.2,1.4,1.9,3.2,1.9,5.1,0,4.4-3.6,7.9-7.9,7.9s-7.9-3.6-7.9-7.9,3.6-7.9,7.9-7.9.6,0,.9,0l5-10.1h91.4c-14.9-14.5-35.2-23.4-57.7-23.4-45.1,0-81.8,36.1-82.7,81.1h42.2l13.3-26.7h33.6c1.2-2.9,4-5,7.4-5s7.9,3.6,7.9,7.9-3.6,7.9-7.9,7.9-6.2-2.1-7.4-5h-30l-13.3,26.7h-45.7c.3,6.9,1.6,13.7,3.5,20.1h33.7c1.2-2.9,4-5,7.4-5s7.9,3.6,7.9,7.9-3.6,7.9-7.9,7.9-6.2-2.1-7.4-5h-31.7c3.1,7.9,7.4,15.2,12.6,21.7h67.6c1.2-2.9,4-5,7.4-5s7.9,3.6,7.9,7.9-3.6,7.9-7.9,7.9-6.2-2.1-7.4-5h-62.4c15,15.5,36.1,25.1,59.3,25.1,35.1,0,65.1-21.8,77.1-52.7h-29.2c-1.2,2.9-4,5-7.4,5s-7.9-3.6-7.9-7.9,3.6-7.9,7.9-7.9,6.2,2.1,7.4,5h31.2c2.3-7.7,3.6-15.8,3.6-24.2s-1.1-15.4-3.1-22.6h-30.9Z"/>
        <rect class="cls-3" x="728.6" y="5" width="5.2" height="200.5" rx="2.6" ry="2.6"/>
      </g>
    </g>
  </g>
</svg>